<mxfile host="app.diagrams.net" agent="Mozilla/5.0 (X11; Linux x86_64) AppleWebKit/537.36 (KHTML, like Gecko) Chrome/136.0.0.0 Safari/537.36" version="27.0.6">
  <diagram name="Page-1" id="bdTNutEjewbuZIXCnmqy">
    <mxGraphModel dx="1426" dy="793" grid="1" gridSize="10" guides="1" tooltips="1" connect="1" arrows="1" fold="1" page="1" pageScale="1" pageWidth="1169" pageHeight="827" math="0" shadow="0">
      <root>
        <mxCell id="0" />
        <mxCell id="1" parent="0" />
        <mxCell id="PYycu6g2RDxXsM01HY8d-20" value="&lt;font style=&quot;font-size: 32px;&quot; face=&quot;Times New Roman&quot;&gt;w&lt;/font&gt;&lt;font style=&quot;font-size: 16px;&quot; face=&quot;Times New Roman&quot;&gt;&lt;sub&gt;0&lt;/sub&gt;&lt;/font&gt;" style="text;html=1;align=center;verticalAlign=middle;whiteSpace=wrap;rounded=0;" parent="1" vertex="1">
          <mxGeometry x="330" y="150" width="60" height="30" as="geometry" />
        </mxCell>
        <mxCell id="PYycu6g2RDxXsM01HY8d-25" value="" style="group" parent="1" vertex="1" connectable="0">
          <mxGeometry x="479" y="333" width="80" height="80" as="geometry" />
        </mxCell>
        <mxCell id="PYycu6g2RDxXsM01HY8d-23" value="" style="ellipse;whiteSpace=wrap;html=1;aspect=fixed;movable=1;resizable=1;rotatable=1;deletable=1;editable=1;locked=0;connectable=1;" parent="PYycu6g2RDxXsM01HY8d-25" vertex="1">
          <mxGeometry width="80" height="80" as="geometry" />
        </mxCell>
        <mxCell id="PYycu6g2RDxXsM01HY8d-24" value="&lt;font face=&quot;Times New Roman&quot; style=&quot;font-size: 50px; line-height: 80%;&quot;&gt;∑&lt;/font&gt;" style="text;html=1;align=center;verticalAlign=middle;whiteSpace=wrap;rounded=0;movable=1;resizable=1;rotatable=1;deletable=1;editable=1;locked=0;connectable=1;" parent="PYycu6g2RDxXsM01HY8d-25" vertex="1">
          <mxGeometry x="10" y="20" width="60" height="30" as="geometry" />
        </mxCell>
        <mxCell id="PYycu6g2RDxXsM01HY8d-45" value="" style="endArrow=classic;html=1;rounded=0;exitX=1;exitY=0.5;exitDx=0;exitDy=0;" parent="PYycu6g2RDxXsM01HY8d-25" source="PYycu6g2RDxXsM01HY8d-1" edge="1">
          <mxGeometry width="50" height="50" relative="1" as="geometry">
            <mxPoint x="-40" y="65" as="sourcePoint" />
            <mxPoint x="10" y="15" as="targetPoint" />
          </mxGeometry>
        </mxCell>
        <mxCell id="PYycu6g2RDxXsM01HY8d-31" value="" style="endArrow=classic;html=1;rounded=0;entryX=0.5;entryY=0;entryDx=0;entryDy=0;" parent="1" target="PYycu6g2RDxXsM01HY8d-23" edge="1">
          <mxGeometry width="50" height="50" relative="1" as="geometry">
            <mxPoint x="519" y="313" as="sourcePoint" />
            <mxPoint x="429" y="233" as="targetPoint" />
          </mxGeometry>
        </mxCell>
        <mxCell id="PYycu6g2RDxXsM01HY8d-32" value="&lt;font style=&quot;font-size: 32px;&quot; face=&quot;Times New Roman&quot;&gt;b&lt;/font&gt;" style="text;html=1;align=center;verticalAlign=middle;whiteSpace=wrap;rounded=0;" parent="1" vertex="1">
          <mxGeometry x="489" y="282" width="60" height="30" as="geometry" />
        </mxCell>
        <mxCell id="PYycu6g2RDxXsM01HY8d-34" value="" style="endArrow=classic;html=1;rounded=0;exitX=1;exitY=0.5;exitDx=0;exitDy=0;entryX=0;entryY=0.5;entryDx=0;entryDy=0;" parent="1" source="PYycu6g2RDxXsM01HY8d-23" target="PYycu6g2RDxXsM01HY8d-35" edge="1">
          <mxGeometry width="50" height="50" relative="1" as="geometry">
            <mxPoint x="569" y="453" as="sourcePoint" />
            <mxPoint x="639" y="373" as="targetPoint" />
          </mxGeometry>
        </mxCell>
        <mxCell id="PYycu6g2RDxXsM01HY8d-35" value="" style="rounded=0;whiteSpace=wrap;html=1;" parent="1" vertex="1">
          <mxGeometry x="598" y="333" width="80" height="80" as="geometry" />
        </mxCell>
        <mxCell id="PYycu6g2RDxXsM01HY8d-38" value="" style="endArrow=none;html=1;rounded=0;exitX=0;exitY=0.75;exitDx=0;exitDy=0;curved=0;" parent="1" edge="1">
          <mxGeometry width="50" height="50" relative="1" as="geometry">
            <mxPoint x="603" y="390.0000000000001" as="sourcePoint" />
            <mxPoint x="673" y="350" as="targetPoint" />
            <Array as="points">
              <mxPoint x="643" y="390" />
            </Array>
          </mxGeometry>
        </mxCell>
        <mxCell id="PYycu6g2RDxXsM01HY8d-40" value="" style="endArrow=classic;html=1;rounded=0;exitX=1;exitY=0.5;exitDx=0;exitDy=0;entryX=0;entryY=0.5;entryDx=0;entryDy=0;" parent="1" edge="1">
          <mxGeometry width="50" height="50" relative="1" as="geometry">
            <mxPoint x="678" y="372.76" as="sourcePoint" />
            <mxPoint x="717" y="372.76" as="targetPoint" />
          </mxGeometry>
        </mxCell>
        <mxCell id="PYycu6g2RDxXsM01HY8d-41" value="&lt;font style=&quot;font-size: 32px;&quot; face=&quot;Times New Roman&quot;&gt;y&lt;/font&gt;" style="text;html=1;align=center;verticalAlign=middle;whiteSpace=wrap;rounded=0;" parent="1" vertex="1">
          <mxGeometry x="708" y="358" width="60" height="30" as="geometry" />
        </mxCell>
        <mxCell id="PYycu6g2RDxXsM01HY8d-1" value="&lt;font style=&quot;font-size: 52px;&quot; face=&quot;Times New Roman&quot;&gt;×&lt;/font&gt;" style="ellipse;whiteSpace=wrap;html=1;" parent="1" vertex="1">
          <mxGeometry x="320" y="200" width="80" height="80" as="geometry" />
        </mxCell>
        <mxCell id="PYycu6g2RDxXsM01HY8d-5" value="" style="endArrow=classic;html=1;rounded=0;" parent="1" edge="1">
          <mxGeometry width="50" height="50" relative="1" as="geometry">
            <mxPoint x="240" y="240" as="sourcePoint" />
            <mxPoint x="320" y="240" as="targetPoint" />
          </mxGeometry>
        </mxCell>
        <mxCell id="PYycu6g2RDxXsM01HY8d-6" value="&lt;font style=&quot;font-size: 52px;&quot; face=&quot;Times New Roman&quot;&gt;×&lt;/font&gt;" style="ellipse;whiteSpace=wrap;html=1;" parent="1" vertex="1">
          <mxGeometry x="320" y="333" width="80" height="80" as="geometry" />
        </mxCell>
        <mxCell id="PYycu6g2RDxXsM01HY8d-8" value="&lt;font style=&quot;font-size: 52px;&quot; face=&quot;Times New Roman&quot;&gt;×&lt;/font&gt;" style="ellipse;whiteSpace=wrap;html=1;" parent="1" vertex="1">
          <mxGeometry x="320" y="519" width="80" height="80" as="geometry" />
        </mxCell>
        <mxCell id="PYycu6g2RDxXsM01HY8d-9" value="" style="endArrow=none;dashed=1;html=1;dashPattern=1 3;strokeWidth=6;rounded=0;" parent="1" edge="1">
          <mxGeometry width="50" height="50" relative="1" as="geometry">
            <mxPoint x="359.71999999999997" y="471" as="sourcePoint" />
            <mxPoint x="360.09" y="409" as="targetPoint" />
            <Array as="points">
              <mxPoint x="360.2" y="424" />
            </Array>
          </mxGeometry>
        </mxCell>
        <mxCell id="PYycu6g2RDxXsM01HY8d-11" value="" style="endArrow=classic;html=1;rounded=0;" parent="1" edge="1">
          <mxGeometry width="50" height="50" relative="1" as="geometry">
            <mxPoint x="360" y="180" as="sourcePoint" />
            <mxPoint x="360" y="200" as="targetPoint" />
          </mxGeometry>
        </mxCell>
        <mxCell id="PYycu6g2RDxXsM01HY8d-12" value="" style="endArrow=classic;html=1;rounded=0;" parent="1" edge="1">
          <mxGeometry width="50" height="50" relative="1" as="geometry">
            <mxPoint x="240" y="372.73" as="sourcePoint" />
            <mxPoint x="320" y="372.73" as="targetPoint" />
          </mxGeometry>
        </mxCell>
        <mxCell id="PYycu6g2RDxXsM01HY8d-13" value="" style="endArrow=classic;html=1;rounded=0;" parent="1" edge="1">
          <mxGeometry width="50" height="50" relative="1" as="geometry">
            <mxPoint x="240" y="558.5" as="sourcePoint" />
            <mxPoint x="320" y="558.5" as="targetPoint" />
          </mxGeometry>
        </mxCell>
        <mxCell id="PYycu6g2RDxXsM01HY8d-14" value="" style="endArrow=classic;html=1;rounded=0;" parent="1" edge="1">
          <mxGeometry width="50" height="50" relative="1" as="geometry">
            <mxPoint x="360" y="315" as="sourcePoint" />
            <mxPoint x="359.5" y="333" as="targetPoint" />
          </mxGeometry>
        </mxCell>
        <mxCell id="PYycu6g2RDxXsM01HY8d-15" value="" style="endArrow=classic;html=1;rounded=0;" parent="1" edge="1">
          <mxGeometry width="50" height="50" relative="1" as="geometry">
            <mxPoint x="360" y="501" as="sourcePoint" />
            <mxPoint x="359.8" y="519" as="targetPoint" />
          </mxGeometry>
        </mxCell>
        <mxCell id="PYycu6g2RDxXsM01HY8d-17" value="&lt;font style=&quot;font-size: 32px;&quot; face=&quot;Times New Roman&quot;&gt;x&lt;/font&gt;&lt;font style=&quot;font-size: 16px;&quot; face=&quot;Times New Roman&quot;&gt;&lt;sub&gt;1&lt;/sub&gt;&lt;/font&gt;" style="text;html=1;align=center;verticalAlign=middle;whiteSpace=wrap;rounded=0;" parent="1" vertex="1">
          <mxGeometry x="190" y="352" width="60" height="30" as="geometry" />
        </mxCell>
        <mxCell id="PYycu6g2RDxXsM01HY8d-18" value="&lt;font style=&quot;font-size: 32px;&quot; face=&quot;Times New Roman&quot;&gt;x&lt;/font&gt;&lt;font style=&quot;font-size: 16px;&quot; face=&quot;Times New Roman&quot;&gt;&lt;sub&gt;N-1&lt;/sub&gt;&lt;/font&gt;" style="text;html=1;align=center;verticalAlign=middle;whiteSpace=wrap;rounded=0;" parent="1" vertex="1">
          <mxGeometry x="190" y="539" width="60" height="30" as="geometry" />
        </mxCell>
        <mxCell id="PYycu6g2RDxXsM01HY8d-19" value="&lt;font style=&quot;font-size: 32px;&quot; face=&quot;Times New Roman&quot;&gt;x&lt;/font&gt;&lt;font style=&quot;font-size: 16px;&quot; face=&quot;Times New Roman&quot;&gt;&lt;sub&gt;0&lt;/sub&gt;&lt;/font&gt;" style="text;html=1;align=center;verticalAlign=middle;whiteSpace=wrap;rounded=0;" parent="1" vertex="1">
          <mxGeometry x="190" y="220" width="60" height="30" as="geometry" />
        </mxCell>
        <mxCell id="PYycu6g2RDxXsM01HY8d-21" value="&lt;font style=&quot;font-size: 32px;&quot; face=&quot;Times New Roman&quot;&gt;w&lt;/font&gt;&lt;font style=&quot;font-size: 16px;&quot; face=&quot;Times New Roman&quot;&gt;&lt;sub&gt;1&lt;/sub&gt;&lt;/font&gt;" style="text;html=1;align=center;verticalAlign=middle;whiteSpace=wrap;rounded=0;" parent="1" vertex="1">
          <mxGeometry x="330" y="285" width="60" height="30" as="geometry" />
        </mxCell>
        <mxCell id="PYycu6g2RDxXsM01HY8d-22" value="&lt;font style=&quot;font-size: 32px;&quot; face=&quot;Times New Roman&quot;&gt;w&lt;/font&gt;&lt;font style=&quot;font-size: 16px;&quot; face=&quot;Times New Roman&quot;&gt;&lt;sub&gt;N-1&lt;/sub&gt;&lt;/font&gt;" style="text;html=1;align=center;verticalAlign=middle;whiteSpace=wrap;rounded=0;" parent="1" vertex="1">
          <mxGeometry x="330" y="471" width="60" height="30" as="geometry" />
        </mxCell>
        <mxCell id="PYycu6g2RDxXsM01HY8d-46" value="" style="endArrow=classic;html=1;rounded=0;exitX=1;exitY=0.5;exitDx=0;exitDy=0;entryX=0;entryY=0.5;entryDx=0;entryDy=0;" parent="1" source="PYycu6g2RDxXsM01HY8d-6" target="PYycu6g2RDxXsM01HY8d-23" edge="1">
          <mxGeometry width="50" height="50" relative="1" as="geometry">
            <mxPoint x="450" y="410" as="sourcePoint" />
            <mxPoint x="500" y="360" as="targetPoint" />
          </mxGeometry>
        </mxCell>
        <mxCell id="PYycu6g2RDxXsM01HY8d-47" value="" style="endArrow=classic;html=1;rounded=0;exitX=1;exitY=0.5;exitDx=0;exitDy=0;entryX=0;entryY=1;entryDx=0;entryDy=0;" parent="1" source="PYycu6g2RDxXsM01HY8d-8" target="PYycu6g2RDxXsM01HY8d-23" edge="1">
          <mxGeometry width="50" height="50" relative="1" as="geometry">
            <mxPoint x="440" y="510" as="sourcePoint" />
            <mxPoint x="500" y="380" as="targetPoint" />
          </mxGeometry>
        </mxCell>
      </root>
    </mxGraphModel>
  </diagram>
</mxfile>
